<svg xmlns="http://www.w3.org/2000/svg" xmlns:xlink="http://www.w3.org/1999/xlink" version="1.1" x="0px" y="0px" viewBox="0 0 793.699 761.81125" enable-background="new 0 0 793.699 609.449" xml:space="preserve"><polygon points="32.608,59.103 88.106,59.103 164.602,102.601 241.098,102.601 241.098,89.102 281.596,95.101 349.093,173.097   373.092,146.099 406.09,152.099 460.087,243.594 497.585,252.593 497.585,270.592 482.586,339.589 532.083,444.584 584.58,462.582   629.578,441.584 643.077,447.584 658.076,434.084 673.075,381.587 722.573,357.595 766.072,359.088 751.072,428.085   716.573,462.582 668.576,462.582 665.576,488.081 685.075,509.079 644.577,515.079 638.577,559.863 590.58,513.579 562.081,510.579   523.083,533.078 310.095,437.084 286.096,404.086 296.595,375.587 286.096,339.589 200.6,251.093 205.1,237.594 145.103,170.098   121.104,104.101 83.606,81.602 86.606,132.6 148.667,224 193.101,318.59 179.601,330.59 128.604,270.592 127.104,234.594   70.604,192.596 91.105,186.597 91.604,168.598 59.607,131.1 "/><text x="0" y="624.449" fill="#000000" font-size="5px" font-weight="bold" font-family="'Helvetica Neue', Helvetica, Arial-Unicode, Arial, Sans-serif">Created by Yanis Olivares</text><text x="0" y="629.449" fill="#000000" font-size="5px" font-weight="bold" font-family="'Helvetica Neue', Helvetica, Arial-Unicode, Arial, Sans-serif">from the Noun Project</text></svg>